{"title":"The Real Businessman 2015 Hindi Dubbed","uid":12207320,"size":1957953193,"categoryP":"video","categoryS":"movies","magnet":"?xt=urn:btih:fcdba9848a5b4123ee05193f0a0369c70355b08e&amp;dn=The+Real+Businessman+2015+Hindi+Dubbed&amp;tr=udp%3A%2F%2Ftracker.openbittorrent.com%3A80&amp;tr=udp%3A%2F%2Fopen.demonii.com%3A1337&amp;tr=udp%3A%2F%2Ftracker.coppersurfer.tk%3A6969&amp;tr=udp%3A%2F%2Fexodus.desync.com%3A6969","seeders":1,"leechers":1,"uploader":"sohan1030","files":1,"time":1439008023,"description":"[center][b][size=200][color=orange].....SOLID GOLD.....[/color][/size][/b]\n[img]http://www.uppic.com/uploads/14232722151.jpg[/img]\n\n[i][size=200][color=black]Info[/color][/size][/i]\n\nGeneral\nFormat : MPEG-4\nFormat profile : Base Media / Version 2\nCodec ID : mp42\nFile size : 1.82 GiB\nDuration : 2h 26mn\nOverall bit rate mode : Variable\nOverall bit rate : 1 778 Kbps\nEncoded date : UTC 2015-07-31 22:30:01\nTagged date : UTC 2015-07-31 22:30:01\ngsst : 0\ngstd : 8809185\ngssd : B0AFCECD2HM1438889600583360\ngshh : r6---sn-h557sne7.googlevideo.com\n\n[b][color=black]Video\nID : 1\nFormat : AVC\nFormat/Info : Advanced Video Codec\nFormat profile : &lt;a class=&quot;__cf_email__&quot; href=&quot;/cdn-cgi/l/email-protection&quot; data-cfemail=&quot;165e7f717e565a253827&quot;&gt;[email&amp;#160;protected]&lt;/a&gt;&lt;script data-cfhash='f9e31' type=&quot;text/javascript&quot;&gt;\n/* &lt;![CDATA[ */!function(){try{var t=&quot;currentScript&quot;in document?document.currentScript:function(){for(var t=document.getElementsByTagName(&quot;script&quot;),e=t.length;e--;)if(t[e].getAttribute(&quot;data-cfhash&quot;))return t[e]}();if(t&amp;&amp;t.previousSibling){var e,r,n,i,c=t.previousSibling,a=c.getAttribute(&quot;data-cfemail&quot;);if(a){for(e=&quot;&quot;,r=parseInt(a.substr(0,2),16),n=2;a.length-n;n+=2)i=parseInt(a.substr(n,2),16)^r,e+=String.fromCharCode(i);e=document.createTextNode(e),c.parentNode.replaceChild(e,c)}t.parentNode.removeChild(t);}}catch(u){}}()/* ]]&gt; */&lt;/script&gt;\nFormat settings, CABAC : Yes\nFormat settings, ReFrames : 1 frame\nCodec ID : avc1\nCodec ID/Info : Advanced Video Coding\nDuration : 2h 26mn\nBit rate : 1 584 Kbps\nMaximum bit rate : 4 922 Kbps\nWidth : 1 280 pixels\nHeight : 720 pixels\nDisplay aspect ratio : 16:9\nFrame rate mode : Constant\nFrame rate : 25.000 fps\nColor space : YUV\nChroma subsampling : 4:2:0\nBit depth : 8 bits\nScan type : Progressive\nBits/(Pixel*Frame) : 0.069\nStream size : 1.62 GiB (89%)\nTagged date : UTC 2015-07-31 22:34:18\n\nAudio\nID : 2\nFormat : AAC\nFormat/Info : Advanced Audio Codec\nFormat profile : LC\nCodec ID : 40\nDuration : 2h 26mn\nBit rate mode : Variable\nBit rate : 192 Kbps\nMaximum bit rate : 202 Kbps\nChannel(s) : 2 channels\nChannel positions : Front: L R\nSampling rate : 44.1 KHz\nCompression mode : Lossy\nStream size : 202 MiB (11%)\nTitle : IsoMedia File Produced by Google, 5-11-2011\nLanguage : English\nEncoded date : UTC 2015-07-31 22:32:03\nTagged date : UTC 2015-07-31 22:34:18\n[/color][/b]\n[i][size=200][color=black]Screenshots[/color][/size][/i]\n\n[url=http://extraimago.com/image/Sd3][img]http://extraimago.com/images/2015/08/07/vlcsnap-2015-08-07-18h23m53s513.md.png[/img][/url]\n[url=http://extraimago.com/image/Sd9][img]http://extraimago.com/images/2015/08/07/vlcsnap-2015-08-07-18h25m54s091.md.png[/img][/url]\n[url=http://extraimago.com/image/SdM][img]http://extraimago.com/images/2015/08/07/vlcsnap-2015-08-07-18h26m46s725.md.png[/img][/url]\n[url=http://extraimago.com/image/SdU][img]http://extraimago.com/images/2015/08/07/vlcsnap-2015-08-07-18h26m39s557.md.png[/img][/url]\n[url=http://extraimago.com/image/Sdz][img]http://extraimago.com/images/2015/08/07/vlcsnap-2015-08-07-18h26m27s798.md.png[/img][/url]\n[url=http://extraimago.com/image/Sd0][img]http://extraimago.com/images/2015/08/07/vlcsnap-2015-08-07-18h28m11s145.md.png[/img][/url]\n[url=http://extraimago.com/image/SdJ][img]http://extraimago.com/images/2015/08/07/vlcsnap-2015-08-07-18h24m07s273.md.png[/img][/url]\n[url=http://extraimago.com/image/SdK][img]http://extraimago.com/images/2015/08/07/vlcsnap-2015-08-07-18h24m41s877.md.png[/img][/url]\n[url=http://extraimago.com/image/SdZ][img]http://extraimago.com/images/2015/08/07/vlcsnap-2015-08-07-18h25m03s645.md.png[/img][/url]\n[url=http://extraimago.com/image/Sde][img]http://extraimago.com/images/2015/08/07/vlcsnap-2015-08-07-18h26m05s209.md.png[/img][/url]\n[url=http://extraimago.com/image/Sd4][img]http://extraimago.com/images/2015/08/07/vlcsnap-2015-08-07-18h27m06s570.md.png[/img][/url]\n[url=http://extraimago.com/image/SdB][img]http://extraimago.com/images/2015/08/07/vlcsnap-2015-08-07-18h27m42s973.md.png[/img][/url]\n[url=http://extraimago.com/image/SdC][img]http://extraimago.com/images/2015/08/07/vlcsnap-2015-08-07-18h28m23s743.md.png[/img][/url]\n[url=http://extraimago.com/image/SdY][img]http://extraimago.com/images/2015/08/07/vlcsnap-2015-08-07-18h26m19s803.md.png[/img][/url]\n[url=http://extraimago.com/image/Sdp][img]http://extraimago.com/images/2015/08/07/vlcsnap-2015-08-07-18h27m50s028.md.png[/img][/url]\n\n[i][size=200][color=green]......TORRENT SEEDED FROM SEEDBOX 24*7.....[/color][/size][/i]\n[image=IVn6dFDWhO][/center]","torrent":{"xt":"urn:btih:fcdba9848a5b4123ee05193f0a0369c70355b08e","amp;dn":"The+Real+Businessman+2015+Hindi+Dubbed","amp;tr":["udp%3A%2F%2Ftracker.openbittorrent.com%3A80","udp%3A%2F%2Fopen.demonii.com%3A1337","udp%3A%2F%2Ftracker.coppersurfer.tk%3A6969","udp%3A%2F%2Fexodus.desync.com%3A6969"],"infoHash":"fcdba9848a5b4123ee05193f0a0369c70355b08e","infoHashBuffer":{"type":"Buffer","data":[252,219,169,132,138,91,65,35,238,5,25,63,10,3,105,199,3,85,176,142]},"announce":[],"urlList":[]}}